<?xml version="1.0" standalone="no"?><!DOCTYPE svg PUBLIC "-//W3C//DTD SVG 1.1//EN" "http://www.w3.org/Graphics/SVG/1.1/DTD/svg11.dtd"><svg t="1596087076666" class="icon" viewBox="0 0 1024 1024" version="1.1" xmlns="http://www.w3.org/2000/svg" p-id="4753" xmlns:xlink="http://www.w3.org/1999/xlink" width="200" height="200"><defs><style type="text/css"></style></defs><path d="M512 39C250.7 39 39 250.7 39 512s211.7 473 473 473 473-211.7 473-473S773.3 39 512 39z m411.9 473c0 226.4-183.3 411.9-411.9 411.9-226.4 0-411.9-183.3-411.9-411.9 0-226.4 183.3-411.9 411.9-411.9 226.4 0 411.9 183.2 411.9 411.9zM640 680.4L485.1 567.9c-5.9-4.4-9.3-11.3-9.3-18.5V245c0-12.6 10.3-22.9 22.9-22.9h26.7c12.6 0 22.9 10.3 22.9 22.9v279l134.5 97.8c10.3 7.4 12.4 21.7 5 32L672 675.4c-7.4 10.2-21.7 12.4-32 5z" p-id="4754"></path></svg>